<svg xmlns="http://www.w3.org/2000/svg" width="1060" height="600" viewBox="0 0 1060 600" role="img" aria-labelledby="t d">
  <title id="t">Relic Stat Summary screen</title><desc id="d">A visual representation of the I-key Stat Summary with offensive, defensive, utility, and active set totals.</desc>
  <defs><linearGradient id="bg" x2="1" y2="1"><stop stop-color="#070c13"/><stop offset="1" stop-color="#111a27"/></linearGradient><linearGradient id="head" x2="1"><stop stop-color="#172536"/><stop offset="1" stop-color="#101824"/></linearGradient></defs>
  <rect width="1060" height="600" fill="url(#bg)"/><path d="M22 20H1038V580H22Z" fill="none" stroke="#53edf3" stroke-opacity=".25"/>
  <g transform="translate(125 72)" font-family="Arial,sans-serif"><path d="M14 0H796L810 14V440L796 454H14L0 440V14Z" fill="#090f18" stroke="#edc96d" stroke-width="2"/><path d="M12 12H798V80H12Z" fill="url(#head)" stroke="#53edf3" stroke-opacity=".25"/><text x="405" y="43" text-anchor="middle" fill="#edc96d" font-family="Georgia,serif" font-size="25" font-weight="bold">✦ RELIC STAT SUMMARY ✦</text><text x="405" y="65" text-anchor="middle" fill="#7f8ea3" font-size="10" letter-spacing="3">EQUIPPED + ACTIVE PHANTOM + SET BONUSES</text>
    <!-- columns -->
    <g transform="translate(28 104)"><rect width="238" height="210" fill="#101925" stroke="#ed6f72" stroke-opacity=".55"/><text x="18" y="31" fill="#ed6f72" font-size="14" font-weight="bold">⚔ OFFENSE</text><path d="M18 43H220" stroke="#3a4554"/><text x="18" y="75" fill="#ff9a72">ATK</text><text x="213" y="75" text-anchor="end" fill="#f1f4f8" font-weight="bold">+12.4  /  +38.6%</text><text x="18" y="108" fill="#76d8ff">Crit Rate</text><text x="213" y="108" text-anchor="end" fill="#f1f4f8" font-weight="bold">61.8%</text><text x="18" y="141" fill="#d38cff">Crit DMG</text><text x="213" y="141" text-anchor="end" fill="#f1f4f8" font-weight="bold">142.3%</text><text x="18" y="174" fill="#ffe26a">ATK Speed</text><text x="213" y="174" text-anchor="end" fill="#70dc9a" font-weight="bold">+25.0% CAP</text></g>
    <g transform="translate(286 104)"><rect width="238" height="210" fill="#101925" stroke="#70dc9a" stroke-opacity=".55"/><text x="18" y="31" fill="#70dc9a" font-size="14" font-weight="bold">⛨ DEFENSE</text><path d="M18 43H220" stroke="#3a4554"/><text x="18" y="75" fill="#8ad6ff">DEF</text><text x="213" y="75" text-anchor="end" fill="#f1f4f8" font-weight="bold">+4.2 / +25.0%</text><text x="18" y="108" fill="#ff7f91">HP</text><text x="213" y="108" text-anchor="end" fill="#f1f4f8" font-weight="bold">+8.4 / +15.0%</text><text x="18" y="141" fill="#9cc6d8">Material peak</text><text x="213" y="141" text-anchor="end" fill="#f0bd58" font-weight="bold">Netherite 1.12×</text><text x="18" y="174" fill="#9cc6d8">Offhand</text><text x="213" y="174" text-anchor="end" fill="#f1f4f8" font-weight="bold">50% efficient</text></g>
    <g transform="translate(544 104)"><rect width="238" height="210" fill="#101925" stroke="#53edf3" stroke-opacity=".55"/><text x="18" y="31" fill="#53edf3" font-size="14" font-weight="bold">➤ UTILITY</text><path d="M18 43H220" stroke="#3a4554"/><text x="18" y="75" fill="#53edf3">Move Speed</text><text x="213" y="75" text-anchor="end" fill="#70dc9a" font-weight="bold">+20.0% CAP</text><text x="18" y="108" fill="#a8ef87">Jump Boost</text><text x="213" y="108" text-anchor="end" fill="#f1f4f8" font-weight="bold">+18.0%</text><text x="18" y="141" fill="#9ad779">Luck</text><text x="213" y="141" text-anchor="end" fill="#f1f4f8" font-weight="bold">+12.0%</text><text x="18" y="174" fill="#9cc6d8">Phantom Main</text><text x="213" y="174" text-anchor="end" fill="#70dc9a" font-weight="bold">ACTIVE</text></g>
    <!-- sets -->
    <g transform="translate(28 334)"><rect width="754" height="86" fill="#111b21" stroke="#70dc9a" stroke-opacity=".55"/><text x="18" y="28" fill="#70dc9a" font-size="14" font-weight="bold">ACTIVE SETS</text><text x="18" y="56" fill="#edc96d" font-size="14">Netherite · 4 / 4</text><text x="190" y="56" fill="#b5c1d1" font-size="13">+25% ATK · +5% Crit Rate · +10% Crit DMG</text><text x="18" y="76" fill="#6d798a" font-size="11">2-piece and 4-piece entries are combined in the live total.</text></g>
  </g>
  <g font-family="Arial,sans-serif"><text x="44" y="42" fill="#53edf3" font-size="12" font-weight="bold">DEFAULT KEY</text><rect x="44" y="52" width="42" height="42" rx="5" fill="#151e2b" stroke="#8796aa"/><text x="65" y="80" text-anchor="middle" fill="#fff" font-size="20" font-weight="bold">I</text><text x="44" y="112" fill="#76859a" font-size="11">No other GUI open</text><text x="845" y="552" fill="#7f8ea3" font-size="11">Visual representation based on StatSummaryScreen</text></g>
</svg>

